<svg width="29" height="23" viewBox="0 0 29 23" fill="none" xmlns="http://www.w3.org/2000/svg">
<path d="M23.2959 10.1011V20.6724H1.78126V10.1011H23.2959ZM25.0771 8.33386H0V22.4396H25.0771V8.33386Z" fill="#1D1D1B"/>
<path d="M2.26817 9.25281C1.54676 9.25281 0.961914 9.83306 0.961914 10.5488C0.961914 11.2646 1.54676 11.8448 2.26817 11.8448C2.98958 11.8448 3.57442 11.2646 3.57442 10.5488C3.57442 9.83306 2.98958 9.25281 2.26817 9.25281Z" fill="#1D1D1B"/>
<path d="M2.26817 18.799C1.54676 18.799 0.961914 19.3793 0.961914 20.095C0.961914 20.8108 1.54676 21.391 2.26817 21.391C2.98958 21.391 3.57442 20.8108 3.57442 20.095C3.57442 19.3793 2.98958 18.799 2.26817 18.799Z" fill="#1D1D1B"/>
<path d="M22.6722 9.25281C21.9508 9.25281 21.366 9.83306 21.366 10.5488C21.366 11.2646 21.9508 11.8448 22.6722 11.8448C23.3936 11.8448 23.9785 11.2646 23.9785 10.5488C23.9785 9.83306 23.3936 9.25281 22.6722 9.25281Z" fill="#1D1D1B"/>
<path d="M22.6722 18.799C21.9508 18.799 21.366 19.3793 21.366 20.095C21.366 20.8108 21.9508 21.391 22.6722 21.391C23.3936 21.391 23.9785 20.8108 23.9785 20.095C23.9814 19.3793 23.3936 18.799 22.6722 18.799Z" fill="#1D1D1B"/>
<path d="M12.5369 13.5208C13.573 13.5208 14.4162 14.3543 14.4162 15.3852C14.4162 16.4132 13.576 17.2497 12.5369 17.2497C11.4979 17.2497 10.6577 16.4162 10.6577 15.3852C10.6607 14.3573 11.5008 13.5208 12.5369 13.5208ZM12.5369 11.459C10.3549 11.459 8.57959 13.2203 8.57959 15.3852C8.57959 17.5502 10.3549 19.3115 12.5369 19.3115C14.719 19.3115 16.4943 17.5502 16.4943 15.3852C16.4943 13.2203 14.719 11.459 12.5369 11.459Z" fill="black"/>
<path d="M6.07999 16.6047C6.74239 16.6047 7.27937 16.0719 7.27937 15.4147C7.27937 14.7575 6.74239 14.2248 6.07999 14.2248C5.4176 14.2248 4.88062 14.7575 4.88062 15.4147C4.88062 16.0719 5.4176 16.6047 6.07999 16.6047Z" fill="black"/>
<path d="M18.7892 16.6047C19.4516 16.6047 19.9886 16.0719 19.9886 15.4147C19.9886 14.7575 19.4516 14.2248 18.7892 14.2248C18.1268 14.2248 17.5898 14.7575 17.5898 15.4147C17.5898 16.0719 18.1268 16.6047 18.7892 16.6047Z" fill="black"/>
<path d="M22.3666 1.01096C19.269 1.01096 16.7522 3.51054 16.7522 6.5813C16.7522 9.65207 19.2716 12.1516 22.3666 12.1516C25.4617 12.1516 27.981 9.65207 27.981 6.5813C27.981 3.51054 25.4617 1.01096 22.3666 1.01096Z" fill="#1D1D1B"/>
<path d="M22.3665 13.1626C18.7085 13.1626 15.7332 10.2106 15.7332 6.5813C15.7332 2.95198 18.7085 0 22.3665 0C26.0246 0 28.9999 2.95198 28.9999 6.5813C28.9999 10.2106 26.022 13.1626 22.3665 13.1626ZM22.3665 2.0219C19.8319 2.0219 17.7711 4.06656 17.7711 6.5813C17.7711 9.09604 19.8319 11.1407 22.3665 11.1407C24.9012 11.1407 26.962 9.09604 26.962 6.5813C26.962 4.06656 24.8986 2.0219 22.3665 2.0219Z" fill="white"/>
<path d="M24.0371 5.19951C24.0115 5.17387 23.9788 5.16106 23.9391 5.16106H23.2097C23.1614 4.9246 23.0704 4.71934 22.9367 4.54551H23.9305C23.9704 4.54551 24.003 4.5327 24.0286 4.50711C24.0541 4.48148 24.0669 4.44867 24.0669 4.40878V3.97267C24.0669 3.93275 24.0541 3.9 24.0286 3.87434C24.003 3.84874 23.9703 3.83588 23.9305 3.83588H20.3818C20.342 3.83588 20.3093 3.84874 20.2837 3.87433C20.2582 3.89999 20.2454 3.93273 20.2454 3.97265V4.54119C20.2454 4.57823 20.2589 4.61029 20.2859 4.63736C20.3129 4.66443 20.3449 4.67796 20.3818 4.67796H21.0003C21.6002 4.67796 21.9813 4.83893 22.1433 5.16099H20.3818C20.342 5.16099 20.3093 5.17379 20.2837 5.19944C20.2582 5.22512 20.2454 5.25785 20.2454 5.29776V5.73382C20.2454 5.77371 20.2581 5.8065 20.2837 5.83209C20.3093 5.85777 20.3421 5.87054 20.3818 5.87054H22.2031C22.1406 6.10429 21.9948 6.28237 21.7659 6.40492C21.5369 6.52749 21.2349 6.58877 20.8595 6.58877H20.3818C20.3449 6.58877 20.3129 6.60232 20.2859 6.62937C20.2589 6.65646 20.2454 6.68853 20.2454 6.72554V7.26849C20.2454 7.30559 20.2581 7.33693 20.2837 7.36255C20.8296 7.9439 21.5377 8.75746 22.4078 9.80344C22.4334 9.83767 22.4689 9.85474 22.5144 9.85474H23.3461C23.4059 9.85474 23.4472 9.82917 23.4698 9.77777C23.4983 9.72647 23.4927 9.67802 23.4528 9.63241C22.6226 8.61214 21.9699 7.84839 21.4951 7.34114C21.9785 7.28415 22.3709 7.12738 22.6723 6.87094C22.9737 6.61448 23.1571 6.28098 23.2225 5.87061H23.9391C23.9788 5.87061 24.0116 5.85783 24.0371 5.83216C24.0627 5.80657 24.0755 5.77378 24.0755 5.7339V5.29788C24.0755 5.25792 24.0627 5.22518 24.0371 5.19951Z" fill="#FFF9F9"/>
</svg>
