<svg width="14" height="14" viewBox="0 0 14 14" fill="none" xmlns="http://www.w3.org/2000/svg">
<path d="M10.192 0.933319C11.2296 0.968798 12.2113 1.41193 12.9241 2.16658C13.637 2.92123 14.0236 3.92653 14 4.96438C14 9.03512 7.00004 13.0662 7.00004 13.0662C7.00004 13.0662 3.83484e-05 8.97585 3.83484e-05 4.96438C-0.0287196 3.92509 0.356136 2.91685 1.0701 2.16106C1.78407 1.40527 2.76879 0.963708 3.80804 0.933319C4.4521 0.934509 5.08484 1.10284 5.64434 1.42186C6.20385 1.74088 6.67098 2.19966 7.00004 2.75332C7.33178 2.20206 7.7995 1.74522 8.35841 1.42655C8.91731 1.10787 9.54868 0.93804 10.192 0.933319Z" fill="#D7443E"/>
</svg>
